<?xml version="1.0" encoding="UTF-8" standalone="no"?>
<!-- Created with Inkscape (http://www.inkscape.org/) -->

<svg width="240mm" height="120mm" viewBox="0 0 240 120" version="1.1" id="svg8" inkscape:version="1.2.1 (9c6d41e, 2022-07-14)" sodipodi:docname="vertical-nudge.svg" xmlns:inkscape="http://www.inkscape.org/namespaces/inkscape" xmlns:sodipodi="http://sodipodi.sourceforge.net/DTD/sodipodi-0.dtd" xmlns="http://www.w3.org/2000/svg" xmlns:svg="http://www.w3.org/2000/svg" xmlns:rdf="http://www.w3.org/1999/02/22-rdf-syntax-ns#" xmlns:cc="http://creativecommons.org/ns#" xmlns:dc="http://purl.org/dc/elements/1.1/">
  <defs id="defs2">
    <inkscape:path-effect effect="spiro" id="path-effect1606" is_visible="true" lpeversion="1" />
    <rect x="184.28169" y="135.01053" width="39.944598" height="32.666019" id="rect1297" />
    <inkscape:path-effect effect="spiro" id="path-effect537" is_visible="true" lpeversion="1" />
    <inkscape:path-effect effect="spiro" id="path-effect237" is_visible="true" lpeversion="1" />
    <inkscape:path-effect effect="spiro" id="path-effect537-9" is_visible="true" lpeversion="1" />
    <marker id="marker-arrow-2.654" orient="auto-start-reverse" refY="0" refX="0" markerHeight="3" markerWidth="2">
      <g transform="scale(0.85737252)" id="g1610"><path d="M -1.55415,2.0722 C -1.42464,1.29512 0,0.1295 0.38852,0 0,-0.1295 -1.42464,-1.29512 -1.55415,-2.0722" style="fill:none;stroke:#000000;stroke-linecap:round;stroke-linejoin:round;stroke-miterlimit:10;stroke-dasharray:none;stroke-opacity:1" id="path1608" />
0&quot; /&gt; 
    </g>
    </marker>
    <marker id="marker-arrow-2.654-1" orient="auto-start-reverse" refY="0" refX="0" markerHeight="3" markerWidth="2">
      <g transform="scale(0.85737252)" id="g1610-8"><path d="M -1.55415,2.0722 C -1.42464,1.29512 0,0.1295 0.38852,0 0,-0.1295 -1.42464,-1.29512 -1.55415,-2.0722" style="fill:none;stroke:#000000;stroke-linecap:round;stroke-linejoin:round;stroke-miterlimit:10;stroke-dasharray:none;stroke-opacity:1" id="path1608-5" />
0&quot; /&gt; 
    </g>
    </marker>
    <inkscape:path-effect effect="spiro" id="path-effect1606-8" is_visible="true" lpeversion="1" />
  </defs>
  <sodipodi:namedview id="base" pagecolor="#ffffff" bordercolor="#666666" borderopacity="1.0" inkscape:pageopacity="0.0" inkscape:pageshadow="2" inkscape:zoom="5.1057813" inkscape:cx="470.64296" inkscape:cy="197.32533" inkscape:document-units="mm" inkscape:current-layer="layer1" showgrid="false" showborder="true" width="200mm" showguides="true" inkscape:guide-bbox="true" inkscape:window-width="1390" inkscape:window-height="1103" inkscape:window-x="183" inkscape:window-y="38" inkscape:window-maximized="0" inkscape:showpageshadow="0" inkscape:pagecheckerboard="0" inkscape:deskcolor="#d1d1d1">
    <inkscape:grid type="xygrid" id="grid815" units="mm" spacingx="10" spacingy="10" empspacing="4" dotted="false" />
  </sodipodi:namedview>
  <metadata id="metadata5">
    <rdf:RDF>
      <cc:Work rdf:about="">
        <dc:format>image/svg+xml</dc:format>
        <dc:type rdf:resource="http://purl.org/dc/dcmitype/StillImage" />
        <dc:title />
      </cc:Work>
    </rdf:RDF>
  </metadata>
  <g inkscape:label="Layer 1" inkscape:groupmode="layer" id="layer1" transform="translate(0,-177)">
    <path style="fill:#008000;stroke:#000000;stroke-width:0.702204;stop-color:#000000" d="M 38.847728,208.80418 H 177.74166" id="path235" inkscape:path-effect="#path-effect237" inkscape:original-d="m 38.847728,208.80418 c 46.298241,2.6e-4 92.596222,2.6e-4 138.893932,0" />
    <path style="fill:none;fill-opacity:1;stroke:#818181;stroke-width:0.702204;stroke-dasharray:none;stroke-opacity:1;marker-start:none;marker-end:none;stop-color:#000000" d="m 39.063466,197.62881 c 4.146204,3.2292 9.379097,5.03693 14.634419,5.05552 2.991233,0.0106 5.980427,-0.54465 8.78065,-1.59648 3.113558,-1.16952 6.008115,-2.94904 9.243424,-3.72027 1.617654,-0.38562 3.31993,-0.50811 4.944481,-0.15266 1.624551,0.35544 3.16769,1.21679 4.171638,2.54253 0.415031,0.54806 0.734357,1.16644 1.178989,1.69077 0.222316,0.26217 0.476759,0.50046 0.771723,0.67696 0.294964,0.1765 0.632454,0.28945 0.976172,0.29307 0.475103,0.005 0.936192,-0.1999 1.303389,-0.50142 0.367196,-0.30152 0.648818,-0.69468 0.888084,-1.10517 0.239266,-0.41049 0.44023,-0.84219 0.67411,-1.25577 0.23388,-0.41358 0.504449,-0.81315 0.859542,-1.12884 0.420866,-0.37416 0.949367,-0.61753 1.499822,-0.73637 0.550454,-0.11883 1.122705,-0.11654 1.680105,-0.0364 1.114801,0.16034 2.159237,0.62314 3.206,1.03881 4.074417,1.61794 8.401816,2.57849 12.771856,2.92688 2.34185,0.1867 4.70985,0.19803 7.02804,-0.18294 2.31818,-0.38096 4.5914,-1.16533 6.53983,-2.47786 1.07899,-0.72685 2.05281,-1.61015 3.18291,-2.25466 0.56505,-0.32226 1.16972,-0.58355 1.80623,-0.71766 0.63651,-0.13412 1.30697,-0.13759 1.93118,0.0454 0.65919,0.19329 1.24587,0.58708 1.74789,1.05598 0.50203,0.4689 0.92653,1.01342 1.34488,1.55829 0.41835,0.54487 0.83468,1.09475 1.32335,1.57755 0.48868,0.4828 1.05642,0.89982 1.70373,1.12978 0.73853,0.26236 1.55247,0.26903 2.31915,0.10636 0.76668,-0.16267 1.49064,-0.48839 2.17195,-0.8758 1.36261,-0.77482 2.58313,-1.80508 4.02347,-2.42352 1.29776,-0.55722 2.73064,-0.75669 4.14234,-0.71418 1.41169,0.0425 2.80719,0.32059 4.17116,0.68701 2.72795,0.73285 5.37815,1.82579 8.18347,2.15581 3.1965,0.37604 6.50683,-0.28602 9.31282,-1.86256" id="path535" inkscape:path-effect="#path-effect537" inkscape:original-d="m 39.063466,197.62881 c 4.878403,1.68544 9.756545,3.37061 14.634419,5.05552 4.877874,1.68491 5.85403,-1.06405 8.78065,-1.59648 2.92662,-0.53242 12.239961,-0.88667 18.359543,-1.3304 6.119582,-0.44373 1.951519,1.77413 2.926884,2.6608 0.975363,0.88667 2.483681,-2.66054 3.725125,-3.9912 1.241443,-1.33067 4.25755,0.17765 6.385927,0.26608 2.128377,0.0884 8.514836,1.95152 12.771856,2.92688 4.25702,0.97537 9.04551,-1.7736 13.56787,-2.6608 4.52236,-0.8872 4.61381,-1.95099 6.92032,-2.92688 2.30651,-0.9759 4.08016,3.548 6.11985,5.3216 2.03968,1.77361 5.67664,-2.12838 8.51457,-3.19296 2.83792,-1.06459 10.99825,1.41936 16.49697,2.12864 5.49873,0.70928 6.20881,-1.24144 9.31282,-1.86256" />
    <path style="fill:none;fill-opacity:1;stroke:#818181;stroke-width:0.702204;stroke-dasharray:none;stroke-opacity:1;marker-start:none;marker-end:none;stop-color:#000000" d="m 39.268726,215.39427 c 4.146204,3.2292 9.379097,5.03693 14.634419,5.05552 2.991233,0.0106 5.980427,-0.54465 8.78065,-1.59648 3.113558,-1.16952 6.008115,-2.94904 9.243424,-3.72027 1.617654,-0.38562 3.31993,-0.50811 4.944481,-0.15266 1.624551,0.35544 3.16769,1.21679 4.171638,2.54253 0.415031,0.54806 0.734357,1.16644 1.178989,1.69077 0.222316,0.26217 0.476759,0.50046 0.771723,0.67696 0.294964,0.1765 0.632454,0.28945 0.976172,0.29307 0.475103,0.005 0.936192,-0.1999 1.303389,-0.50142 0.367196,-0.30152 0.648818,-0.69468 0.888084,-1.10517 0.239266,-0.41049 0.44023,-0.84219 0.67411,-1.25577 0.23388,-0.41358 0.504449,-0.81315 0.859542,-1.12884 0.420866,-0.37416 0.949367,-0.61753 1.499822,-0.73637 0.550454,-0.11883 1.122705,-0.11654 1.680105,-0.0364 1.114801,0.16034 2.159237,0.62314 3.206,1.03881 4.074417,1.61794 8.401816,2.57849 12.771856,2.92688 2.34185,0.1867 4.70985,0.19803 7.02804,-0.18294 2.31818,-0.38096 4.5914,-1.16533 6.53983,-2.47786 1.07899,-0.72685 2.05281,-1.61015 3.18291,-2.25466 0.56505,-0.32226 1.16972,-0.58355 1.80623,-0.71766 0.63651,-0.13412 1.30697,-0.13759 1.93118,0.0454 0.65919,0.19329 1.24587,0.58708 1.74789,1.05598 0.50203,0.4689 0.92653,1.01342 1.34488,1.55829 0.41835,0.54487 0.83468,1.09475 1.32335,1.57755 0.48868,0.4828 1.05642,0.89982 1.70373,1.12978 0.73853,0.26236 1.55247,0.26903 2.31915,0.10636 0.76668,-0.16267 1.49064,-0.48839 2.17195,-0.8758 1.36261,-0.77482 2.58313,-1.80508 4.02347,-2.42352 1.29776,-0.55722 2.73064,-0.75669 4.14234,-0.71418 1.41169,0.0425 2.80719,0.32059 4.17116,0.68701 2.72795,0.73285 5.37815,1.82579 8.18347,2.15581 3.1965,0.37604 6.50683,-0.28602 9.31282,-1.86256" id="path535-7" inkscape:path-effect="#path-effect537-9" inkscape:original-d="m 39.268726,215.39427 c 4.878403,1.68544 9.756545,3.37061 14.634419,5.05552 4.877874,1.68491 5.85403,-1.06405 8.78065,-1.59648 2.92662,-0.53242 12.239961,-0.88667 18.359543,-1.3304 6.119582,-0.44373 1.951519,1.77413 2.926884,2.6608 0.975363,0.88667 2.483681,-2.66054 3.725125,-3.9912 1.241443,-1.33067 4.25755,0.17765 6.385927,0.26608 2.128377,0.0884 8.514836,1.95152 12.771856,2.92688 4.25702,0.97537 9.04551,-1.7736 13.56787,-2.6608 4.52236,-0.8872 4.61381,-1.95099 6.92032,-2.92688 2.30651,-0.9759 4.08016,3.548 6.11985,5.3216 2.03968,1.77361 5.67664,-2.12838 8.51457,-3.19296 2.83792,-1.06459 10.99825,1.41936 16.49697,2.12864 5.49873,0.70928 6.20881,-1.24144 9.31282,-1.86256" />
    <text xml:space="preserve" style="font-size:3.175px;white-space:pre;inline-size:26.1104;display:inline;fill:none;fill-opacity:1;stroke:#000000;stroke-width:0.702204;stroke-dasharray:none;stroke-opacity:1;marker-start:none;marker-end:none;stop-color:#000000" x="38.847729" y="211.62164" id="text1185" transform="translate(0,-24.870841)"><tspan x="38.847729" y="211.62164" id="tspan1909">$X + \delta$</tspan></text>
    <text xml:space="preserve" style="font-size:3.175px;white-space:pre;inline-size:26.1104;display:inline;fill:none;fill-opacity:1;stroke:#000000;stroke-width:0.702204;stroke-dasharray:none;stroke-opacity:1;marker-start:none;marker-end:none;stop-color:#000000" x="38.847729" y="211.62164" id="text1185-9" transform="translate(0.29288411,17.48889)"><tspan x="38.847729" y="211.62164" id="tspan1911">$X$</tspan></text>
    <text xml:space="preserve" style="font-size:3.175px;white-space:pre;inline-size:26.1104;display:inline;fill:none;fill-opacity:1;stroke:#000000;stroke-width:0.702204;stroke-dasharray:none;stroke-opacity:1;marker-start:none;marker-end:none;stop-color:#000000" x="38.847729" y="211.62164" id="text1185-9-1" transform="translate(-22.744394,-2.2925574)"><tspan x="38.847729" y="211.62164" id="tspan1913">$y = 0$</tspan></text>
    <text xml:space="preserve" transform="matrix(0.26458333,0,0,0.26458333,0,177)" id="text1295" style="white-space:pre;shape-inside:url(#rect1297);display:inline;fill:none;fill-opacity:1;stroke:#000000;stroke-width:2.654;stroke-dasharray:none;stroke-opacity:1;marker-start:none;marker-end:none;stop-color:#000000" />
    <text xml:space="preserve" style="font-size:3.175px;fill:none;fill-opacity:1;stroke:#000000;stroke-width:0.702204;stroke-dasharray:none;stroke-opacity:1;marker-start:none;marker-end:none;stop-color:#000000" x="175.5735" y="221.95207" id="text1410"><tspan sodipodi:role="line" id="tspan1408" style="stroke:#000000;stroke-width:0.702204;stroke-opacity:1" x="175.5735" y="221.95207">$F^+(X) = 0$</tspan></text>
    <text xml:space="preserve" style="font-size:3.175px;fill:none;fill-opacity:1;stroke:#000000;stroke-width:0.702204;stroke-dasharray:none;stroke-opacity:1;marker-start:none;marker-end:none;stop-color:#000000" x="110.33505" y="232.69164" id="text1410-8"><tspan sodipodi:role="line" id="tspan1408-4" style="stroke:#000000;stroke-width:0.702204;stroke-opacity:1" x="110.33505" y="232.69164">$d(X, X + \delta) = \delta$</tspan></text>
    <text xml:space="preserve" style="font-size:3.175px;fill:none;fill-opacity:1;stroke:#000000;stroke-width:0.702204;stroke-dasharray:none;stroke-opacity:1;marker-start:none;marker-end:none;stop-color:#000000" x="175.5735" y="197.60258" id="text1410-1"><tspan sodipodi:role="line" id="tspan1408-5" style="stroke:#000000;stroke-width:0.702204;stroke-opacity:1" x="175.5735" y="197.60258">$F^+(X+ \delta) = 1$</tspan></text>
    <path style="fill:none;fill-opacity:1;stroke:#000000;stroke-width:0.598404;stroke-dasharray:none;stroke-opacity:1;marker-start:none;marker-end:url(#marker-arrow-2.654);stop-color:#000000" d="M 126.76543,210.91574 V 199.42896" id="path1604" inkscape:path-effect="#path-effect1606" inkscape:original-d="m 126.76543,210.91574 c 2.6e-4,-3.82873 2.6e-4,-7.65766 0,-11.48678" />
    <path style="fill:none;fill-opacity:1;stroke:#000000;stroke-width:0.598404;stroke-dasharray:none;stroke-opacity:1;marker-start:none;marker-end:url(#marker-arrow-2.654-1);stop-color:#000000" d="M 92.680389,214.77547 V 203.28869" id="path1604-9" inkscape:path-effect="#path-effect1606-8" inkscape:original-d="m 92.680389,214.77547 c 2.6e-4,-3.82873 2.6e-4,-7.65766 0,-11.48678" />
  </g>
</svg>
